
Complete name                    : Formosa.Betrayed.2009.avi

Format                           : AVI
File size                        : 706 MiB
Duration                         : 1h 38mn
Overall bit rate                 : 999 Kbps

Video

Format                           : MPEG-4 Visual
Codec ID/Hint                    : XviD
Duration                         : 1h 38mn
Bit rate                         : 858 Kbps
Width                            : 720 pixels
Height                           : 552 pixels
Display aspect ratio             : 1.855
Stream size                      : 607 MiB (86%)
Writing library                  : XviD 1.1.2 (UTC 2006-11-01)

Audio

Format                           : MPEG Audio
Codec ID/Hint                    : MP3
Duration                         : 1h 38mn
Bit rate                         : 128 Kbps
Channel(s)                       : 2 channels
Sampling rate                    : 48.0 KHz
Stream size                      : 90.5 MiB (13%)
Writing library                  : LAME3.98
Language                         : English

Text #1
Language                         : Swedish

Text #2
Language                         : Finnish

Text #3
Language                         : Norwegian

Text #4
Language                         : Danish
